<?xml version="1.0" encoding="UTF-8"?>
<svg width="61px" height="30px" viewBox="0 0 61 30" version="1.1" xmlns="http://www.w3.org/2000/svg" xmlns:xlink="http://www.w3.org/1999/xlink">
    <title>users</title>
    <g id="Page-1" stroke="none" stroke-width="1" fill="none" fill-rule="evenodd">
        <g id="Edit-vendor---additional-info-Copy-2" transform="translate(-706.000000, -485.000000)" stroke="#333333" stroke-width="1.44">
            <g id="users" transform="translate(707.000000, 486.000000)">
                <g id="Group" transform="translate(17.000000, 2.000000)">
                    <ellipse id="Oval" cx="12.935" cy="6.30102041" rx="6.175" ry="6.30102041"></ellipse>
                    <path d="M26,26 C26,18.6737737 20.1797017,12.7346939 13,12.7346939 C5.82029825,12.7346939 0,18.6737737 0,26 L26,26 Z" id="Path"></path>
                </g>
                <g id="Group">
                    <g transform="translate(39.375504, 0.000000)" id="Path">
                        <path d="M12.8481757,6.30102441 C12.9788622,9.00975307 11.5070476,11.528145 9.13179521,12.6600476 C6.75654281,13.7919501 3.95645048,13.3092923 2.06146922,11.4413205 C0.166487967,9.57334879 -0.441555794,6.69644729 0.526138561,4.17704885 C1.49383292,1.6576504 3.84228126,0.0033974544 6.4560485,0 C9.86518404,-0.00441911305 12.6777215,2.76803075 12.8481757,6.30102441 Z"></path>
                        <path d="M0,15.6581656 C3.95746257,13.0574632 8.96879734,12.9108781 13.0611731,15.2761171 C17.1535488,17.641356 19.6715213,22.1395968 19.6238306,27 L1.78979562,27"></path>
                    </g>
                    <g id="Path">
                        <path d="M18.9846179,6.30102441 C19.1153043,9.00975307 17.6434898,11.528145 15.2682374,12.6600476 C12.8929849,13.7919501 10.0928926,13.3092923 8.19791136,11.4413205 C6.30293011,9.57334879 5.69488635,6.69644729 6.6625807,4.17704885 C7.63027506,1.6576504 9.9787234,0.0033974544 12.5924906,0 C16.0016262,-0.00441911305 18.8141636,2.76803075 18.9846179,6.30102441 Z"></path>
                        <path d="M17.7701137,27 L0,27 C0,19.6737752 5.72370568,13.7346966 12.7842545,13.7346966 C15.0440709,13.7594984 17.2543918,14.4246109 19.1763817,15.6581656"></path>
                    </g>
                </g>
            </g>
        </g>
    </g>
</svg>