<svg data-name="Layer 1" viewBox="0 0 64 64" xmlns="http://www.w3.org/2000/svg"><path d="M51 26.009v26.722A1.207 1.207 0 0 1 49.867 54H14.133A1.207 1.207 0 0 1 13 52.731V26" fill="none" stroke="#333333" stroke-miterlimit="10" stroke-width="2px" class="stroke-000000"></path><path d="M18.324 35h9.352A1.324 1.324 0 0 1 29 36.324V54H17V36.324A1.324 1.324 0 0 1 18.324 35Z" fill="none" stroke="#333333" stroke-miterlimit="10" stroke-width="2px" class="stroke-000000"></path><path d="M24 45h2" fill="none" stroke="#333333" stroke-linecap="round" stroke-linejoin="round" stroke-width="2px" class="stroke-000000"></path><rect height="12" rx="1.262" width="15" x="33" y="37" fill="none" stroke="#333333" stroke-miterlimit="10" stroke-width="2px" class="stroke-000000"></rect><path d="M52.919 20H11.081a1.094 1.094 0 0 1-1.026-1.48l2.186-5.828a8.108 8.108 0 0 0 .806-1.917 1.048 1.048 0 0 1 1-.775h35.9a1.048 1.048 0 0 1 1 .775 8.108 8.108 0 0 0 .806 1.917l2.186 5.828a1.095 1.095 0 0 1-1.02 1.48Z" fill="none" stroke="#333333" stroke-miterlimit="10" stroke-width="2px" class="stroke-000000"></path><path d="M10 20h44v4a2 2 0 0 1-2 2H12a2 2 0 0 1-2-2v-4ZM17 20v6M24 20v6M32 20v6M40 20v6M47 20v6" fill="none" stroke="#333333" stroke-miterlimit="10" stroke-width="2px" class="stroke-000000"></path><path d="m40 39-3 3M44 39l-7 7" fill="none" stroke="#333333" stroke-linecap="round" stroke-miterlimit="10" stroke-width="2px" class="stroke-000000"></path></svg>