<svg xmlns="http://www.w3.org/2000/svg" width="33" height="29" viewBox="0 0 32.13 28.567"><style><![CDATA[.B{stroke-miterlimit:10}.C{stroke-width:.454}.D{stroke-linejoin:round}.E{stroke-linecap:round}.F{stroke:#293f54}]]></style><g fill="none" stroke-width=".567" class="B F"><path d="M31.846 27.284a1 1 0 0 1-1 1H1.284a1 1 0 0 1-1-1v-26a1 1 0 0 1 1-1h29.563a1 1 0 0 1 1 1v26z"/><path d="M.096 7.222h31.688"/></g><g fill="#00b1cc"><circle cx="2.846" cy="3.846" r=".813"/><circle cx="6.846" cy="3.846" r=".813"/><circle cx="10.846" cy="3.846" r=".813"/></g><g fill="#293f54"><circle cx="16.221" cy="3.846" r=".5"/><circle cx="18.747" cy="3.846" r=".5"/><circle cx="21.272" cy="3.846" r=".5"/><circle cx="23.797" cy="3.846" r=".5"/><circle cx="26.322" cy="3.846" r=".5"/><circle cx="28.846" cy="3.846" r=".5"/></g><g fill="none" class="B C D"><g class="E F"><path d="M20.858 14.642v-3.315H7.494v11.026H20.88V20.56"/><path d="M7.494 12.998h13.364"/></g><path d="M9.9 15.284h6.174M9.9 17.558h6.174M9.9 19.83h6.174" stroke="#00b1cc" class="E"/><path d="M9.9 22.353v2.396h13.406V22.6m-2.438-10.814h2.397v4.793" class="F E"/><g stroke="#00b1cc"><path d="M27.984 21.084l-1.506 2.205-8.455-5.773 1.506-2.205z"/><path d="M28.275 23.896l.927-1.36a.51.51 0 0 0-.134-.712l-1.086-.74-1.507 2.205 1.086.74c.235.16.554.1.714-.134z"/><path d="M27.23 22.186l-2.632-1.797" class="E"/><path d="M19.527 15.31l-2.68-.17 1.175 2.375z"/></g><path d="M20.88 13.704h2.188" class="E F"/></g></svg>