<svg xmlns="http://www.w3.org/2000/svg" width="33" height="29" viewBox="0 0 32.129 28.567"><g fill="none" stroke="#293f54" stroke-width=".567" stroke-miterlimit="10"><path d="M31.846 27.284a1 1 0 0 1-1 1H1.283a1 1 0 0 1-1-1v-26a1 1 0 0 1 1-1h29.563a1 1 0 0 1 1 1v26z"/><path d="M.096 7.22h31.687"/></g><g fill="#00b1cc"><circle cx="2.846" cy="3.846" r=".813"/><circle cx="6.846" cy="3.846" r=".813"/><circle cx="10.846" cy="3.846" r=".813"/></g><g fill="#293f54"><circle cx="16.221" cy="3.846" r=".5"/><circle cx="18.746" cy="3.846" r=".5"/><circle cx="21.271" cy="3.846" r=".5"/><circle cx="23.796" cy="3.846" r=".5"/></g><g fill="none" stroke="#293f54" stroke-miterlimit="10" stroke-width=".454" stroke-linejoin="round"><path stroke-linecap="round" d="M24.008 15.198l-7.965 4.077-7.964-4.077"/><path d="M24.008 15.198l-7.965-5.32-7.964 5.32v8.806c0 .688.557 1.244 1.244 1.244h13.44c.688 0 1.244-.557 1.244-1.243v-8.807z"/><path d="M13.635 19.4l1.984 1.016a.93.93 0 0 0 .85 0l1.983-1.016m2.056-3.1v-2.204h-8.93V16.3" stroke-linecap="round"/></g><path fill="#ffc500" d="M8.82 22.744v1.26c0 .277.226.504.503.504h13.44c.277 0 .503-.227.503-.504v-1.26H8.82z"/><path fill="#00b1cc" d="M14.294 15.92c0-.472.287-.77.695-.77s.69.296.69.77-.284.77-.69.77-.695-.3-.695-.77zm.987 0c0-.3-.116-.444-.292-.444s-.292.148-.292.444.12.443.292.443.292-.143.292-.443zm1.375-.74h.476l-1.91 2.8h-.476l1.91-2.8zm-.46 2.06c0-.472.288-.77.69-.77.408 0 .696.3.696.77s-.288.77-.696.77c-.403 0-.69-.3-.69-.77zm.984 0c0-.296-.115-.444-.292-.444s-.29.145-.29.444.12.443.29.443.292-.147.292-.443z"/><path d="M23.23 10.254c0-.472.287-.77.695-.77s.7.296.7.77-.284.77-.7.77-.695-.3-.695-.77zm.988 0c0-.3-.116-.444-.292-.444s-.292.148-.292.444.12.443.292.443.292-.143.292-.443zm1.375-.74h.476l-1.9 2.8h-.476l1.9-2.8zm-.46 2.06c0-.472.288-.77.7-.77.408 0 .696.3.696.77s-.288.77-.696.77c-.403 0-.7-.3-.7-.77zm.983 0c0-.296-.115-.444-.292-.444s-.3.145-.3.444.12.443.3.443.292-.147.292-.443zm-23.322.463c0-.472.287-.77.695-.77s.7.296.7.77-.284.77-.7.77-.695-.3-.695-.77zm.987 0c0-.3-.116-.444-.292-.444s-.292.148-.292.444.12.443.292.443.292-.144.292-.443zm1.375-.74h.476l-1.9 2.8h-.476l1.9-2.8zm-.46 2.06c0-.472.288-.77.7-.77.408 0 .696.3.696.77s-.288.77-.696.77-.7-.3-.7-.77zm.984 0c0-.296-.115-.444-.292-.444-.172 0-.3.145-.3.444s.12.443.3.443.292-.147.292-.443zm20.327 5.33c0-.43.262-.7.632-.7s.63.27.63.7-.258.7-.63.7-.632-.272-.632-.7zm.897 0c0-.272-.105-.403-.266-.403-.155 0-.265.135-.265.403s.1.403.265.403.266-.13.266-.403zm1.25-.672h.433l-1.736 2.542h-.432l1.735-2.542zm-.417 1.87c0-.43.26-.7.628-.7s.632.272.632.7-.262.7-.632.7-.628-.272-.628-.7zm.893 0c0-.27-.104-.403-.265-.403s-.266.13-.266.403.1.403.266.403.265-.134.265-.403zM2.944 18.878c0-.43.262-.7.632-.7s.63.27.63.7-.258.7-.63.7-.632-.272-.632-.7zm.898 0c0-.272-.105-.403-.266-.403-.155 0-.265.135-.265.403s.1.403.265.403.266-.13.266-.403zm1.25-.67h.433L3.788 20.75h-.433l1.736-2.542zm-.417 1.87c0-.43.26-.7.628-.7s.632.272.632.7-.262.7-.632.7-.628-.273-.628-.7zm.892 0c0-.27-.104-.403-.265-.403s-.266.13-.266.403.1.403.266.403.265-.135.265-.403z" fill="#ffc500"/></svg>