<?xml version="1.0" encoding="utf-8"?>
<!-- Generator: Adobe Illustrator 16.0.0, SVG Export Plug-In . SVG Version: 6.00 Build 0)  -->
<!DOCTYPE svg PUBLIC "-//W3C//DTD SVG 1.1//EN" "http://www.w3.org/Graphics/SVG/1.1/DTD/svg11.dtd">
<svg version="1.1" xmlns="http://www.w3.org/2000/svg" xmlns:xlink="http://www.w3.org/1999/xlink" x="0px" y="0px"
	 width="32.129px" height="28.567px" viewBox="0 0 32.129 28.567" enable-background="new 0 0 32.129 28.567" xml:space="preserve">
<g id="Layer_1">
	
		<polygon fill="#FFC500" stroke="#FFC500" stroke-width="0.4544" stroke-linecap="round" stroke-linejoin="round" stroke-miterlimit="10" points="
		31.847,11.741 17.217,11.741 10.403,17.127 17.3,22.544 31.784,22.544 	"/>
	<g>
		<path fill="none" stroke="#293F54" stroke-width="0.5669" stroke-miterlimit="10" d="M31.846,27.284c0,0.552-0.447,1-1,1H1.283
			c-0.552,0-1-0.448-1-1v-26c0-0.552,0.448-1,1-1h29.563c0.553,0,1,0.448,1,1V27.284z"/>
		<line fill="none" stroke="#293F54" stroke-width="0.5669" stroke-miterlimit="10" x1="0.096" y1="7.221" x2="31.783" y2="7.221"/>
		<circle fill="#00B1CC" cx="2.846" cy="3.846" r="0.813"/>
		<circle fill="#00B1CC" cx="6.846" cy="3.846" r="0.813"/>
		<circle fill="#00B1CC" cx="10.846" cy="3.846" r="0.813"/>
		<circle fill="#293F54" cx="16.221" cy="3.846" r="0.5"/>
		<circle fill="#293F54" cx="18.746" cy="3.846" r="0.5"/>
		<circle fill="#293F54" cx="21.271" cy="3.846" r="0.5"/>
		<circle fill="#293F54" cx="23.797" cy="3.846" r="0.5"/>
		<circle fill="#293F54" cx="26.321" cy="3.846" r="0.5"/>
		<circle fill="#293F54" cx="28.846" cy="3.846" r="0.5"/>
	</g>
	<g>
		<path fill="#293F54" d="M24.681,18.68h-2.058l-0.393,0.95H21.18l1.976-4.433h1.013l1.982,4.433h-1.076L24.681,18.68z
			 M24.358,17.901l-0.703-1.697l-0.703,1.697H24.358z"/>
	</g>
</g>
<g id="txt">
</g>
</svg>
