<svg xmlns="http://www.w3.org/2000/svg" width="33" height="29" viewBox="0 0 32.129 28.567"><g fill="none" stroke="#293f54" stroke-width=".567" stroke-miterlimit="10"><path d="M31.846 27.284a1 1 0 0 1-1 1H1.283a1 1 0 0 1-1-1v-26a1 1 0 0 1 1-1h29.563a1 1 0 0 1 1 1v26z"/><path d="M.096 7.22h31.687"/></g><g fill="#00b1cc"><circle cx="2.846" cy="3.846" r=".813"/><circle cx="6.846" cy="3.846" r=".813"/><circle cx="10.846" cy="3.846" r=".813"/></g><g fill="#293f54"><circle cx="16.221" cy="3.846" r=".5"/><circle cx="18.746" cy="3.846" r=".5"/><circle cx="21.271" cy="3.846" r=".5"/><circle cx="23.796" cy="3.846" r=".5"/></g><g fill="none" stroke="#293f54" stroke-miterlimit="10" stroke-width=".454" stroke-linecap="round" stroke-linejoin="round"><path d="M16.104 21.94c.514.06 1.924.086 2.738-.48.566-.395.094-1.384-.65-1.02-.975.475-1.842.074-1.842.074-1.717-1.078-3.324-.887-4.535-.023"/><path d="M11.815 23.018l4.803.3c1.732.098 2.904-.847 4.592-2.48a.54.54 0 0 0-.615-.873l-1.502 1.084m-8.92 3.183h1.025c.316 0 .572-.257.572-.574v-3.953c0-.317-.256-.574-.572-.574h-1.025m6.445-2.945a.91.91 0 1 0 1.828 0c0-.504-.375-.738-.914-.914-.48-.157-.914-.4-.914-.914a.91.91 0 1 1 1.828 0m-.914-1.422v.515m0 3.65v.515"/></g><path fill="#00b1cc" d="M13.08 15.275c0-2.455 1.996-4.45 4.45-4.45.344 0 .678.04 1 .115a4.42 4.42 0 0 0-2.266-.622c-2.455 0-4.45 1.997-4.45 4.452a4.46 4.46 0 0 0 3.451 4.336c-1.306-.776-2.185-2.202-2.185-3.83z"/><circle fill="none" stroke="#293f54" stroke-width=".454" stroke-linejoin="round" cx="17.532" cy="15.275" r="3.451"/></svg>