<svg xmlns="http://www.w3.org/2000/svg" xmlns:xlink="http://www.w3.org/1999/xlink" width="33" height="29" viewBox="0 0 32.129 28.566"><style><![CDATA[.B{stroke-miterlimit:10}.C{stroke-linecap:round}.D{fill:#293f54}.E{stroke-width:.454}.F{stroke-linejoin:round}]]></style><g fill="none" stroke="#293f54" stroke-width=".567" class="B"><path d="M31.846 27.283a1 1 0 0 1-1 1H1.283a1 1 0 0 1-1-1v-26a1 1 0 0 1 1-1h29.563a1 1 0 0 1 1 1v26z"/><path d="M.096 7.22h31.687"/></g><g fill="#00b1cc"><circle cx="2.846" cy="3.846" r=".813"/><circle cx="6.846" cy="3.846" r=".813"/><circle cx="10.846" cy="3.846" r=".813"/></g><g class="D"><circle cx="16.221" cy="3.846" r=".5"/><circle cx="18.746" cy="3.846" r=".5"/><circle cx="21.271" cy="3.846" r=".5"/><circle cx="23.797" cy="3.846" r=".5"/><circle cx="26.321" cy="3.846" r=".5"/><circle cx="28.846" cy="3.846" r=".5"/></g><path fill="#ffc500" d="M4.997 19.807s.814-1.54 3.696-1.54c0 0 2.547-.18 3.695 1.54 0 0-1.403 1.564-3.695 1.495 0 0-2.274.08-3.696-1.495z"/><path fill="#00b4d0" d="M4.997 12.163s.825 1.54 3.695 1.54c0 0 2.824.084 3.696-1.54 0 0-1.45-1.545-3.696-1.494 0 0-2.195-.113-3.695 1.494z"/><g class="D"><path d="M14.006 16.127H3.38c-.08 0-.146-.064-.146-.145s.065-.145.146-.145h10.627c.08 0 .145.064.145.145s-.065.145-.145.145z"/><use xlink:href="#B"/><path d="M14.007 16.14c-.08 0-.145-.064-.145-.145 0-2.858-2.32-5.184-5.17-5.184a5.18 5.18 0 0 0-5.169 5.176c0 .08-.064.145-.145.145s-.146-.065-.146-.145a5.47 5.47 0 0 1 5.459-5.465c3.01 0 5.46 2.455 5.46 5.473.001.08-.063.145-.143.145z"/><path d="M5.844 16.127c-.08 0-.145-.064-.145-.145 0-4.227 2.9-5.438 2.94-5.45.074-.03.158.007.188.08s-.007.158-.08.188c-.033.014-2.758 1.162-2.758 5.18 0 .08-.065.144-.145.144z"/><path d="M11.542 16.127c-.08 0-.146-.064-.146-.145 0-4.022-2.73-5.17-2.758-5.18-.074-.03-.1-.113-.08-.188s.114-.1.188-.08c.03.012 2.94 1.223 2.94 5.45.001.082-.065.146-.144.146zm-2.85-2.28c-3 0-3.792-1.554-3.824-1.62-.036-.072-.007-.158.065-.194s.158-.006.193.066c.008.014.77 1.458 3.565 1.458.08 0 .145.065.145.145s-.064.145-.144.145z"/><path d="M8.693 13.848c-.08 0-.145-.065-.145-.146s.064-.145.145-.145c2.813 0 3.558-1.443 3.565-1.458.035-.072.122-.102.193-.066s.102.122.065.194c-.03.067-.832 1.62-3.823 1.62z"/><use xlink:href="#B" x="0.001" y="5.313"/><path d="M8.692 21.447c-3 0-5.46-2.45-5.46-5.46 0-.08.065-.146.146-.146s.145.065.145.146c0 2.85 2.32 5.17 5.17 5.17s5.17-2.32 5.17-5.17c0-.08.064-.146.145-.146s.145.065.145.146a5.47 5.47 0 0 1-5.461 5.459z"/><path d="M8.693 21.447c-.058 0-.112-.035-.135-.092-.03-.074.006-.158.08-.188.033-.014 2.758-1.162 2.758-5.18 0-.08.065-.146.146-.146s.145.065.145.146c0 4.226-2.9 5.437-2.94 5.448-.018.008-.036.012-.054.012z"/><path d="M8.692 21.447c-.018 0-.035-.004-.053-.01-.03-.012-2.94-1.223-2.94-5.448 0-.08.065-.146.145-.146s.146.065.146.146c0 4.02 2.73 5.168 2.758 5.18.073.03.1.114.08.188-.023.056-.078.1-.136.1zM12.4 19.95c-.054 0-.104-.03-.13-.08-.01-.02-.773-1.46-3.565-1.46-.08 0-.145-.064-.145-.145s.064-.145.145-.145c3 0 3.792 1.554 3.824 1.62s.007.158-.065.193c-.02.01-.043.016-.064.016z"/><path d="M4.997 19.95c-.02 0-.043-.005-.063-.015-.072-.035-.102-.122-.065-.193.032-.066.834-1.62 3.824-1.62.08 0 .145.064.145.145s-.064.145-.145.145c-2.813 0-3.558 1.444-3.565 1.46-.026.05-.077.08-.13.08z"/></g><g fill="none" stroke="#293f54" class="E F"><path d="M25.86 19.224h1.69" class="B C"/><circle cx="20.741" cy="21.354" r=".84"/><path d="M19.562 20.75c-.15-.146-.356-.236-.583-.236a.84.84 0 0 0 0 1.68c.227 0 .432-.1.583-.236M17.44 20.95h-1.005c-.328 0-.595-.266-.595-.594v-.9h8.376c.35 0 .633-.283.633-.633v-2.7h1.013c.48 0 .993.285 1.184.803a10.7 10.7 0 0 1 .558 3.414v.602h-1" class="B C"/><circle cx="25.865" cy="21.354" r=".84"/><path d="M22.192 20.95h2.2m.458-4.818v-.873m-8.788 3.42h7.8c.123 0 .222-.1.222-.22v-5.22m-3.574 4.8v-2.88h2.878v2.88m-4.738-3.563v-2.88h2.878v2.88m-4.76 3.563v-2.877l2.878-.002v2.88" class="B C"/></g><path fill="#00c2ca" d="M19.225 12.185v1.523c.27-.096.562-.148.865-.148a2.6 2.6 0 0 1 .864.148v-1.523h-1.73z"/><path d="M17.343 15.696v1.523a2.57 2.57 0 0 1 .864-.148 2.6 2.6 0 0 1 .864.148v-1.523h-1.728zm3.743 0v1.523a2.57 2.57 0 0 1 .864-.148 2.6 2.6 0 0 1 .864.148v-1.523h-1.728z" fill="#ffc500"/><path fill="none" stroke="#ffc500" stroke-dasharray="0.1134,1.1339" d="M3.658 24.457H28.99" class="B C E F"/><g fill="#00b1cc"><circle cx="4.222" cy="24.516" r=".989"/><circle cx="15.139" cy="24.516" r=".989"/></g><circle cx="28.346" cy="24.516" r=".989" class="D"/><defs ><path id="B" d="M8.692 16.133c-.08 0-.145-.065-.145-.145v-5.32c0-.08.064-.145.145-.145s.145.064.145.145v5.32c0 .08-.065.145-.145.145z"/></defs></svg>