<svg xmlns="http://www.w3.org/2000/svg" width="33" height="29" viewBox="0 0 32.13 28.566"><g fill="none" stroke="#293f54" stroke-width=".567" stroke-miterlimit="10"><path d="M31.846 27.283a1 1 0 0 1-1 1H1.284a1 1 0 0 1-1-1v-26a1 1 0 0 1 1-1h29.563a1 1 0 0 1 1 1v26z"/><path d="M.096 7.22h31.688"/></g><g fill="#00b1cc"><circle cx="2.846" cy="3.846" r=".813"/><circle cx="6.846" cy="3.846" r=".813"/><circle cx="10.846" cy="3.846" r=".813"/></g><g fill="#293f54"><circle cx="16.221" cy="3.846" r=".5"/><circle cx="18.747" cy="3.846" r=".5"/><circle cx="21.272" cy="3.846" r=".5"/><circle cx="23.797" cy="3.846" r=".5"/><circle cx="26.322" cy="3.846" r=".5"/><circle cx="28.846" cy="3.846" r=".5"/></g><g fill="none" stroke="#293f54" stroke-miterlimit="10" stroke-width=".454" stroke-linejoin="round"><path d="M14.52 23.413h-1.678l-.014-.484.001-.086h.064a.5.5 0 1 0 .006-1.001 10.23 10.23 0 0 1 .292-1.408l.313-.955.206-.48c.094-.197.176-.4.225-.613a1.76 1.76 0 0 0-.147-1.191 1.83 1.83 0 0 0-1.62-.995c-.678 0-1.313.39-1.62.995a1.76 1.76 0 0 0-.147 1.191c.05.214.13.416.225.613l.206.48.313.955c.13.462.23.933.292 1.408a.5.5 0 1 0 .007 1.001h.064l.001.086-.014.484h-1.68c-.468 0-.847.38-.847.847v.975h6.397v-.975c0-.468-.38-.847-.846-.847z"/><path d="M15.928 17.785a.981.981 0 1 0 1.962 0c0-.542-.402-.793-.98-.98-.515-.17-.98-.442-.98-.983a.981.981 0 1 1 1.962 0m-.982-1.53v.553m0 3.92v.553" stroke-linecap="round"/><path d="M18.498 10.156H15.21a.26.26 0 0 0-.259.259v1.412c0 .302.245.547.546.547h.01a.56.56 0 0 0 .511-.354c.137-.328.46-.556.836-.556s.7.228.837.556c.088.208.284.354.51.354h.008c.3 0 .546-.245.546-.547v-1.412c.001-.143-.115-.26-.258-.26z"/><g stroke-linecap="round"><path d="M22.6 11.31h1.203V22.51a2.72 2.72 0 0 1-2.721 2.72h-4.958"/><path d="M16.135 24.026h4.02c.417 0 .754-.337.754-.753v-.946h.947c.417 0 .754-.34.754-.756V10.156h-2.977m-5.556 0H11.1v5.5"/></g></g><path fill="#00c2ca" d="M13.13 17.605l-.028-.063a1.06 1.06 0 0 0-.935-.573 1.06 1.06 0 0 0-.935.573 1 1 0 0 0-.083.673c.018.077.044.156.08.245.433-.498 1.05-.903 1.902-.855z"/></svg>