<svg xmlns="http://www.w3.org/2000/svg" width="33" height="29" viewBox="0 0 32.129 28.567"><g fill="none" stroke="#293f54" stroke-width=".567" stroke-miterlimit="10"><path d="M31.846 27.284a1 1 0 0 1-1 1H1.283a1 1 0 0 1-1-1v-26a1 1 0 0 1 1-1h29.563a1 1 0 0 1 1 1v26z"/><path d="M.096 7.222h31.687"/></g><g fill="#00b1cc"><circle cx="2.846" cy="3.846" r=".813"/><circle cx="6.846" cy="3.846" r=".813"/><circle cx="10.846" cy="3.846" r=".813"/></g><g fill="#293f54"><circle cx="16.221" cy="3.846" r=".5"/><circle cx="18.746" cy="3.846" r=".5"/><circle cx="21.271" cy="3.846" r=".5"/><circle cx="23.797" cy="3.846" r=".5"/><circle cx="26.321" cy="3.846" r=".5"/><circle cx="28.846" cy="3.846" r=".5"/></g><path d="M10.368 25.063c0 .515-.408.813-1.2.813h-1.54v-2.98H9.1c.745 0 1.13.3 1.13.775 0 .297-.154.527-.396.654.33.108.544.363.544.738zM8.32 23.415v.702h.686c.337 0 .52-.12.52-.354s-.183-.35-.52-.35H8.32zM9.675 25c0-.25-.2-.37-.55-.37H8.32v.736h.805c.358 0 .55-.1.55-.366zm1.19-.436v-1.67h.7v1.643c0 .566.247.8.664.8s.664-.234.664-.8v-1.643h.682v1.67c0 .877-.502 1.362-1.35 1.362s-1.35-.485-1.35-1.362zm6.112-1.668v2.98H16.4l-1.485-1.8v1.8h-.68v-2.98h.57l1.48 1.8v-1.8h.682zm.704 0h1.354c.975 0 1.643.588 1.643 1.5s-.668 1.5-1.643 1.5H17.68v-2.98zM19 25.3c.592 0 .98-.354.98-.924s-.4-.924-.98-.924h-.63V25.3H19zm2.194-2.404h.7v2.418h1.494v.563h-2.184v-2.98zm4.876 2.426v.554h-2.307v-2.98h2.252v.553H24.45v.648h1.384v.535H24.45v.7h1.622z" fill="#00b1cc"/><g fill="none" stroke="#293f54" stroke-miterlimit="10" stroke-width=".454" stroke-linecap="round" stroke-linejoin="round"><path d="M16.938 21.252l-6.28-2.205V14.7m-.001-3.717l6.28 2.205m.001 1.682v6.393l6.282-2.205V14.7m0-3.717l-6.282 2.205"/><path d="M18.858 9.856l4.362 1.117 2 2-6.148 2.287-2.143-2.093m-.001.001l-2.144 2.093-6.148-2.287 2-2 4.36-1.117"/></g><path d="M15.384 19.842l-.04-.1a3.52 3.52 0 0 0-1.408-1.579c-.28-.165-.596-.3-.793-.56-.225-.295-.256-.692-.398-1.034-.22-.54-.717-.916-1.27-1.116v3.015l3.9 1.373zm3.16 0l.037-.1a3.52 3.52 0 0 1 1.41-1.579c.28-.165.594-.3.8-.56.227-.295.256-.692.398-1.034.223-.54.717-.916 1.27-1.116v3.015l-3.907 1.373z" fill="#00c2ca"/></svg>