<svg xmlns="http://www.w3.org/2000/svg" xmlns:xlink="http://www.w3.org/1999/xlink" width="33" height="29" viewBox="0 0 32.13 28.567"><g fill="none" stroke="#293f54" stroke-width=".567" stroke-miterlimit="10"><path d="M31.846 27.284a1 1 0 0 1-1 1H1.284a1 1 0 0 1-1-1v-26a1 1 0 0 1 1-1h29.563a1 1 0 0 1 1 1v26z"/><path d="M.096 7.22h31.688"/></g><g fill="#00b1cc"><circle cx="2.846" cy="3.846" r=".813"/><circle cx="6.846" cy="3.846" r=".813"/><circle cx="10.846" cy="3.846" r=".813"/></g><g fill="#293f54"><circle cx="16.221" cy="3.846" r=".5"/><circle cx="18.747" cy="3.846" r=".5"/><circle cx="21.272" cy="3.846" r=".5"/><circle cx="23.797" cy="3.846" r=".5"/><circle cx="26.322" cy="3.846" r=".5"/><circle cx="28.846" cy="3.846" r=".5"/></g><g fill="#ffc500"><use xlink:href="#B"/><use xlink:href="#C"/><use xlink:href="#B" x="11.4"/></g><g fill="none" stroke-miterlimit="10" stroke-linejoin="round"><use xlink:href="#C" x="11.377" stroke="#293f54" stroke-width=".413"/><g stroke-width=".454"><path stroke="#ffc500" d="M19.784 24.535a1 1 0 0 1-1 1h-6.937a1 1 0 0 1-1-1v-6.207a1 1 0 0 1 1-1h6.937a1 1 0 0 1 1 1v6.207z"/><g stroke="#293f54"><path stroke-linecap="round" d="M14.065 23.877l2.445-4.452"/><path d="M16.978 23.877a.79.79 0 0 1-.792-.792v-.548a.792.792 0 1 1 1.584 0v.548c0 .437-.355.792-.792.792zm-3.326-2.32a.79.79 0 0 1-.792-.792v-.548a.792.792 0 1 1 1.584 0v.548c-.001.437-.355.792-.792.792z"/></g></g></g><defs ><path id="B" d="M6.847 10.236l.686 1.39 1.536.224-1.11 1.083.263 1.53-1.374-.722-1.374.722.262-1.53-1.11-1.083 1.536-.224z"/><path id="C" d="M12.92 10.236l.686 1.39 1.537.224-1.112 1.083.263 1.53-1.374-.722-1.374.722.263-1.53-1.112-1.083 1.536-.224z"/></defs></svg>