<svg xmlns="http://www.w3.org/2000/svg" width="33" height="29" viewBox="0 0 32.13 28.567"><style><![CDATA[.B{stroke-width:.413}.C{stroke-linejoin:round}.D{stroke-miterlimit:10}.E{stroke-linecap:round}]]></style><g fill="none" stroke="#293f54" stroke-width=".567" class="D"><path d="M31.846 27.284a1 1 0 0 1-1 1H1.284a1 1 0 0 1-1-1v-26a1 1 0 0 1 1-1h29.563a1 1 0 0 1 1 1v26z"/><path d="M.096 7.22h31.688"/></g><g fill="#00b1cc"><circle cx="2.846" cy="3.846" r=".813"/><circle cx="6.846" cy="3.846" r=".813"/><circle cx="10.846" cy="3.846" r=".813"/></g><g fill="#293f54"><circle cx="16.221" cy="3.846" r=".5"/><circle cx="18.747" cy="3.846" r=".5"/><circle cx="21.272" cy="3.846" r=".5"/><circle cx="23.797" cy="3.846" r=".5"/><circle cx="26.322" cy="3.846" r=".5"/><circle cx="28.846" cy="3.846" r=".5"/></g><g fill="none" stroke="#293f54" class="B C"><path d="M10.954 24.27v1.317m-1.35-1.317v1.317" class="D E"/><circle cx="10.29" cy="21.865" r=".748"/><path d="M8.734 25.588v-1.9c0-.27.218-.487.486-.487h2.14c.27 0 .487.218.487.486v1.892m10.97-1.32v1.317m-1.35-1.317v1.317" class="D E"/><circle cx="22.153" cy="21.865" r=".748"/><g class="D"><path d="M20.596 25.588v-1.892c0-.27.22-.486.487-.486h2.14c.27 0 .486.218.486.486v1.892" class="E"/><path d="M17.288 16.153c.706 0 1.353-.438 1.57-1.11.06-.188.092-.372.092-.537.001-.605-.21-1.2-.57-1.676l-1.22-1.974h-2.047l-1.246 1.974c-.36.485-.57 1.072-.57 1.676.01.924.762 1.646 1.667 1.646h2.323z"/><path d="M17.16 10.857l.757-.733-.272-.27a.52.52 0 0 0-.737 0l-.22.22-.097-.097c-.25-.25-.66-.25-.9 0l-.096.097-.22-.22a.52.52 0 0 0-.738 0l-.27.27.757.733M15 20.392v5.196m1.114 0v-3.192m1.114 0v3.192m0-5.196v2.004" class="E"/></g><circle cx="16.124" cy="18.316" r=".843"/><g class="D E"><path d="M15 22.396h2.227m-1.113-2.678v.977"/><path d="M16.124 19.718h1l1.218-1.22v-1.32m-2.208 2.54h-.988l-1.22-1.22v-1.32m5.79-2.758s2.448 1.242 2.448 5.06m-.695.3l.695.696.695-.696m-10.19-5.35s-2.448 1.242-2.448 5.06m.695.3l-.695.695-.695-.695"/></g></g><path fill="#ffc500" d="M17.773 13.283l-.02-.026-1.016-1.644H15.53c-.053.084-.034.195.046.253a2.96 2.96 0 0 1 .599.563c.604.752.8 1.844.396 2.72a2.43 2.43 0 0 1-.134.246h.848c.4 0 .74-.24.852-.585.035-.11.055-.217.055-.305a2.04 2.04 0 0 0-.419-1.222z"/></svg>