<svg xmlns="http://www.w3.org/2000/svg" width="33" height="29" viewBox="0 0 32.13 28.567"><g fill="none" stroke="#293f54" stroke-width=".567" stroke-miterlimit="10"><path d="M31.846 27.284a1 1 0 0 1-1 1H1.284a1 1 0 0 1-1-1v-26a1 1 0 0 1 1-1h29.563a1 1 0 0 1 1 1v26z"/><path d="M.096 7.222h31.688"/></g><g fill="#00b1cc"><circle cx="2.846" cy="3.846" r=".813"/><circle cx="6.846" cy="3.846" r=".813"/><circle cx="10.846" cy="3.846" r=".813"/></g><g fill="#293f54"><circle cx="16.221" cy="3.846" r=".5"/><circle cx="18.747" cy="3.846" r=".5"/><circle cx="21.272" cy="3.846" r=".5"/><circle cx="23.797" cy="3.846" r=".5"/><circle cx="26.322" cy="3.846" r=".5"/><circle cx="28.846" cy="3.846" r=".5"/></g><path fill="#00b1cc" d="M8.233 15.68H6.348a.96.96 0 0 0-.962.961v1.886a.96.96 0 0 0 .962.962h1.885a.96.96 0 0 0 .963-.962V16.64a.96.96 0 0 0-.963-.961z"/><path fill="#ffc500" d="M8.233 10.155H6.348a.96.96 0 0 0-.962.961v1.886a.96.96 0 0 0 .962.962h1.885a.96.96 0 0 0 .963-.962v-1.886a.96.96 0 0 0-.963-.961z"/><path fill="#293f54" d="M8.233 21.354H6.348a.96.96 0 0 0-.962.961V24.2a.96.96 0 0 0 .962.962h1.885a.96.96 0 0 0 .963-.962v-1.886a.96.96 0 0 0-.963-.961z"/><g fill="none" stroke="#293f54" stroke-miterlimit="10" stroke-width=".413" stroke-linecap="round" stroke-linejoin="round"><path d="M11.8 11.843h4.858M11.8 17.557h4.858"/><path d="M11.8 23.042h4.858m2.56-11.2h4.86m-4.86 5.714h4.86m-4.86 5.485h4.86"/></g><path d="M6.695 12.676l.113-.25a.84.84 0 0 0 .472.149c.196 0 .276-.065.276-.153 0-.268-.832-.084-.832-.615 0-.243.196-.446.603-.446a.96.96 0 0 1 .497.127l-.103.252c-.133-.076-.27-.113-.396-.113-.196 0-.272.074-.272.164 0 .264.832.082.832.607 0 .24-.198.443-.607.443-.227 0-.456-.068-.583-.165zm1.09 5.807l-.002-.858-.42.707h-.15l-.42-.7v.84h-.3V17.05h.274l.536.9.527-.9h.272l.004 1.432h-.3zm-.943 4.235h.33v1.162h.718v.27H6.84v-1.432z" fill="#fff"/></svg>