<svg xmlns="http://www.w3.org/2000/svg" width="33" height="29" viewBox="0 0 32.13 28.566"><g fill="none" stroke="#293f54" stroke-width=".567" stroke-miterlimit="10"><path d="M31.846 27.283a1 1 0 0 1-1 1H1.284a1 1 0 0 1-1-1v-26a1 1 0 0 1 1-1h29.563a1 1 0 0 1 1 1v26z"/><path d="M.096 7.22h31.688"/></g><g fill="#00b1cc"><circle cx="2.846" cy="3.846" r=".813"/><circle cx="6.846" cy="3.846" r=".813"/><circle cx="10.846" cy="3.846" r=".813"/></g><g fill="#293f54"><circle cx="16.221" cy="3.846" r=".5"/><circle cx="18.747" cy="3.846" r=".5"/><circle cx="21.272" cy="3.846" r=".5"/><circle cx="23.797" cy="3.846" r=".5"/><circle cx="26.322" cy="3.846" r=".5"/><circle cx="28.846" cy="3.846" r=".5"/><path d="M6.98 14.872l-.975 2.98h-.74L4.6 15.834l-.677 2.018h-.737l-.98-2.98h.715l.672 2.095.703-2.095h.64l.68 2.1.694-2.1h.66zm2.246 2.34H7.842l-.264.64h-.706l1.328-2.98h.68l1.333 2.98H9.5l-.264-.638zm-.217-.524l-.472-1.14-.473 1.14h.945zm1.513-1.817h.7v2.98h-.7v-2.98zm2.013.562h-.954v-.562h2.597v.562h-.954v2.418h-.7v-2.418zM3.88 18.872h.7V21.3h1.494v.562H3.88v-2.98zm2.57 0h.7v2.98h-.7v-2.98zM7.6 21.56l.234-.52a1.74 1.74 0 0 0 .983.31c.4 0 .575-.137.575-.32 0-.558-1.733-.175-1.733-1.28 0-.507.4-.93 1.256-.93.375 0 .758.1 1.035.265l-.213.523c-.277-.157-.562-.233-.826-.233-.408 0-.566.152-.566.34 0 .55 1.732.17 1.732 1.265 0 .498-.413.924-1.264.924-.472-.002-.95-.142-1.213-.346zm3.533-2.126h-.953v-.562h2.597v.562h-.954v2.418h-.7v-2.418z"/></g><g stroke="#293f54" stroke-miterlimit="10" fill="#fff" stroke-width=".454" stroke-linejoin="round"><path stroke-linecap="round" d="M25.603 11.743h1.174v13.392h-9.744V23.96"/><path d="M15.858 10.568h9.745V23.96h-9.745z"/><path d="M17.733 12.435h5.994m-5.994 1.58h5.994m-5.994 1.58h5.994m-5.994 1.58h5.994m-5.994 1.58h5.994m-5.994 1.58h5.994m-5.994 1.58h5.994" stroke-linecap="round"/><path d="M28.185 17.782h.84v5.053h-.84z"/><path d="M28.524 24.29h.16c.188 0 .34-.15.34-.34v-1.115h-.84v1.115a.34.34 0 0 0 .339.339z"/><path stroke-linecap="round" d="M28.605 24.29v.846"/><path d="M28.685 16.943h-.16c-.188 0-.34.15-.34.34v.5h.84v-.5a.34.34 0 0 0-.339-.339z"/></g></svg>