<svg width="105" height="16" viewBox="0 0 105 16" fill="none" xmlns="http://www.w3.org/2000/svg">
<g clip-path="url(#clip0_20_135)">
<path d="M102.204 4.09785C103.345 4.09785 104.267 3.18302 104.267 2.05128C104.267 0.91954 103.345 0 102.204 0C101.063 0 100.136 0.914825 100.136 2.04657C100.136 3.17831 101.063 4.09313 102.204 4.09313V4.09785Z" fill="#F6F6F6"/>
<path d="M83.9268 0C83.0427 0 82.3249 0.712054 82.3249 1.58915V4.77689C81.4883 4.33834 80.5376 4.08842 79.5252 4.08842C76.2168 4.08842 73.5216 6.75744 73.5216 10.0442C73.5216 13.331 76.212 16 79.5252 16C82.8383 16 85.5287 13.331 85.5287 10.0442V10.0348V1.58915C85.5287 0.712054 84.811 0 83.9268 0ZM79.5299 12.8217C77.9898 12.8217 76.7301 11.5768 76.7301 10.0442C76.7301 8.51164 77.985 7.26673 79.5299 7.26673C81.0748 7.26673 82.3297 8.51164 82.3297 10.0442C82.3297 11.5768 81.0748 12.8217 79.5299 12.8217Z" fill="#F6F6F6"/>
<path d="M97.0225 0C96.1383 0 95.4206 0.712054 95.4206 1.58915V4.77689C94.584 4.33834 93.6333 4.08842 92.6208 4.08842C89.3124 4.08842 86.6172 6.75744 86.6172 10.0442C86.6172 13.331 89.3077 16 92.6208 16C95.9339 16 98.6244 13.331 98.6244 10.0442C98.6244 10.0442 98.6244 10.0395 98.6244 10.0348C98.6244 10.0348 98.6244 10.0348 98.6244 10.0301V1.58915C98.6244 0.712054 97.9066 0 97.0225 0ZM92.6208 12.8217C91.0807 12.8217 89.821 11.5768 89.821 10.0442C89.821 8.51164 91.076 7.26673 92.6208 7.26673C94.1657 7.26673 95.4206 8.51164 95.4206 10.0442C95.4206 11.5768 94.1657 12.8217 92.6208 12.8217Z" fill="#F6F6F6"/>
<path d="M102.199 5.19189C101.315 5.19189 100.597 5.90395 100.597 6.78105V14.4062C100.597 15.2833 101.315 15.9953 102.199 15.9953C103.083 15.9953 103.801 15.2833 103.801 14.4062V6.78105C103.801 5.90395 103.083 5.19189 102.199 5.19189Z" fill="#F6F6F6"/>
<path d="M67.0141 1.37231C64.029 1.37231 61.6 3.78198 61.6 6.74337V14.4062C61.6 15.2833 62.3178 15.9954 63.2019 15.9954C64.086 15.9954 64.8038 15.2833 64.8038 14.4062V11.624H69.2197V14.4062C69.2197 15.2833 69.9375 15.9954 70.8216 15.9954C71.7058 15.9954 72.4235 15.2833 72.4235 14.4062V6.74337C72.4235 3.78198 69.9945 1.37231 67.0094 1.37231H67.0141ZM69.2245 8.4457H64.8038V6.74337C64.8038 5.53618 65.7973 4.55062 67.0141 4.55062C68.231 4.55062 69.2245 5.53618 69.2245 6.74337V8.4457Z" fill="#F6F6F6"/>
</g>
<path d="M51.2677 12.0978C52.4086 12.0978 53.3307 11.183 53.3307 10.0513C53.3307 8.91954 52.4086 8 51.2677 8C50.1269 8 49.2 8.91482 49.2 10.0466C49.2 11.1783 50.1269 12.0931 51.2677 12.0931V12.0978Z" fill="#F6F6F6"/>
<path d="M12.9299 1.42145C13.3211 1.42145 13.6383 1.10319 13.6383 0.710723C13.6383 0.318255 13.3211 0 12.9299 0C12.5388 0 12.2215 0.318255 12.2215 0.710723C12.2215 1.10319 12.5388 1.42145 12.9299 1.42145Z" fill="white"/>
<path d="M14.5339 3.83482C14.9251 3.83482 15.2423 3.51656 15.2423 3.12409C15.2423 2.73163 14.9251 2.41337 14.5339 2.41337C14.1428 2.41337 13.8256 2.73163 13.8256 3.12409C13.8256 3.51656 14.1428 3.83482 14.5339 3.83482Z" fill="white"/>
<path d="M11.3192 3.83482C11.7104 3.83482 12.0276 3.51656 12.0276 3.12409C12.0276 2.73163 11.7104 2.41337 11.3192 2.41337C10.9281 2.41337 10.6109 2.73163 10.6109 3.12409C10.6109 3.51656 10.9281 3.83482 11.3192 3.83482Z" fill="white"/>
<path d="M14.4524 13.5125C14.8435 13.5125 15.1608 13.1942 15.1608 12.8018C15.1608 12.4093 14.8435 12.091 14.4524 12.091C14.0612 12.091 13.744 12.4093 13.744 12.8018C13.744 13.1942 14.0612 13.5125 14.4524 13.5125Z" fill="white"/>
<path d="M13.6012 10.3151H15.018L16.2503 8.23044H8.84276C8.76161 8.53326 8.48602 8.75622 8.1586 8.75622C7.76742 8.75622 7.45021 8.43796 7.45021 8.04549C7.45021 7.65302 7.76742 7.33477 8.1586 7.33477C8.46178 7.33477 8.72053 7.52594 8.8216 7.79467H14.7091L13.4419 5.83063H10.4133C10.3215 6.11653 10.0542 6.32344 9.7388 6.32344C9.34762 6.32344 9.03041 6.00519 9.03041 5.61272C9.03041 5.22025 9.34762 4.90199 9.7388 4.90199C10.0542 4.90199 10.3216 5.10893 10.4133 5.39485L13.6671 5.39487L15.2155 7.79467H19V8.23044H16.6846L15.1947 10.7509L13.6012 10.7508C13.5095 11.0368 13.2422 11.2437 12.9267 11.2437C12.5355 11.2437 12.2183 10.9255 12.2183 10.533C12.2183 10.1405 12.5355 9.82227 12.9267 9.82227C13.2421 9.82227 13.5094 10.0292 13.6012 10.3151Z" fill="white"/>
<path d="M9.8013 11.1208C10.1249 11.1208 10.3871 10.8575 10.3871 10.533C10.3871 10.2085 10.1249 9.94523 9.8013 9.94523C9.47783 9.94523 9.21563 10.2085 9.21563 10.533C9.21563 10.8575 9.47783 11.1208 9.8013 11.1208Z" fill="white"/>
<path d="M11.3644 13.3895C11.688 13.3895 11.9502 13.1263 11.9502 12.8018C11.9502 12.4772 11.688 12.214 11.3644 12.214C11.0409 12.214 10.7787 12.4772 10.7787 12.8018C10.7787 13.1263 11.0409 13.3895 11.3644 13.3895Z" fill="white"/>
<path d="M9.76014 15.877C10.0838 15.877 10.346 15.6138 10.346 15.2893C10.346 14.9647 10.0838 14.7015 9.76014 14.7015C9.43667 14.7015 9.17447 14.9647 9.17447 15.2893C9.17447 15.6138 9.43667 15.877 9.76014 15.877Z" fill="white"/>
<path d="M8.24396 13.2573C8.49465 13.2573 8.69794 13.0533 8.69794 12.8018C8.69794 12.5503 8.49465 12.3463 8.24396 12.3463C7.99328 12.3463 7.79015 12.5503 7.79015 12.8018C7.79015 13.0533 7.99328 13.2573 8.24396 13.2573Z" fill="white"/>
<path d="M2.66256 8.4952C2.91325 8.4952 3.11654 8.29123 3.11654 8.03972C3.11654 7.78821 2.91325 7.58425 2.66256 7.58425C2.41188 7.58425 2.20876 7.78821 2.20876 8.03972C2.20876 8.29123 2.41188 8.4952 2.66256 8.4952Z" fill="white"/>
<path d="M3.4756 6.0682C3.72629 6.0682 3.92958 5.86424 3.92958 5.61273C3.92958 5.36122 3.72629 5.15726 3.4756 5.15726C3.22491 5.15726 3.02179 5.36122 3.02179 5.61273C3.02179 5.86424 3.22491 6.0682 3.4756 6.0682Z" fill="white"/>
<path d="M5.01389 3.57958C5.26458 3.57958 5.46787 3.37562 5.46787 3.12411C5.46787 2.87259 5.26458 2.66863 5.01389 2.66863C4.76321 2.66863 4.56008 2.87259 4.56008 3.12411C4.56008 3.37562 4.76321 3.57958 5.01389 3.57958Z" fill="white"/>
<path d="M6.57401 1.21988C6.82469 1.21988 7.02798 1.01592 7.02798 0.764407C7.02798 0.512894 6.82469 0.308933 6.57401 0.308933C6.32332 0.308933 6.1202 0.512894 6.1202 0.764407C6.1202 1.01592 6.32332 1.21988 6.57401 1.21988Z" fill="white"/>
<path d="M6.61789 15.7448C6.86858 15.7448 7.07187 15.5408 7.07187 15.2893C7.07187 15.0378 6.86858 14.8338 6.61789 14.8338C6.36721 14.8338 6.16408 15.0378 6.16408 15.2893C6.16408 15.5408 6.36721 15.7448 6.61789 15.7448Z" fill="white"/>
<path d="M5.05778 13.2573C5.30847 13.2573 5.51176 13.0533 5.51176 12.8018C5.51176 12.5503 5.30847 12.3463 5.05778 12.3463C4.80709 12.3463 4.60397 12.5503 4.60397 12.8018C4.60397 13.0533 4.80709 13.2573 5.05778 13.2573Z" fill="white"/>
<path d="M3.45353 10.9885C3.70422 10.9885 3.90751 10.7845 3.90751 10.533C3.90751 10.2815 3.70422 10.0775 3.45353 10.0775C3.20284 10.0775 2.99972 10.2815 2.99972 10.533C2.99972 10.7845 3.20284 10.9885 3.45353 10.9885Z" fill="white"/>
<path d="M2.59675 13.0367C2.72607 13.0367 2.83085 12.9315 2.83085 12.8018C2.83085 12.672 2.72607 12.5669 2.59675 12.5669C2.46726 12.5669 2.36249 12.672 2.36249 12.8018C2.36249 12.9315 2.46726 13.0367 2.59675 13.0367Z" fill="white"/>
<path d="M1.13508 10.7679C1.2644 10.7679 1.36918 10.6628 1.36918 10.533C1.36918 10.4033 1.2644 10.2981 1.13508 10.2981C1.00559 10.2981 0.900809 10.4033 0.900809 10.533C0.900809 10.6628 1.00559 10.7679 1.13508 10.7679Z" fill="white"/>
<path d="M0.234098 8.2325C0.363419 8.2325 0.468366 8.12737 0.468366 7.99763C0.468366 7.86788 0.363419 7.76276 0.234098 7.76276C0.104777 7.76276 0 7.86788 0 7.99763C0 8.12737 0.104777 8.2325 0.234098 8.2325Z" fill="white"/>
<path d="M1.06937 5.85153C1.19869 5.85153 1.30347 5.7464 1.30347 5.61666C1.30347 5.48691 1.19869 5.38179 1.06937 5.38179C0.939879 5.38179 0.835102 5.48691 0.835102 5.61666C0.835102 5.7464 0.939879 5.85153 1.06937 5.85153Z" fill="white"/>
<path d="M2.6513 3.38231C2.78062 3.38231 2.8854 3.27718 2.8854 3.14744C2.8854 3.01769 2.78062 2.91257 2.6513 2.91257C2.52181 2.91257 2.41704 3.01769 2.41704 3.14744C2.41704 3.27718 2.52181 3.38231 2.6513 3.38231Z" fill="white"/>
<path d="M6.59602 11.1208C6.91966 11.1208 7.18186 10.8575 7.18186 10.533C7.18186 10.2085 6.91966 9.94523 6.59602 9.94523C6.27255 9.94523 6.01035 10.2085 6.01035 10.533C6.01035 10.8575 6.27255 11.1208 6.59602 11.1208Z" fill="white"/>
<path d="M4.94789 8.63326C5.27153 8.63326 5.53373 8.37003 5.53373 8.04549C5.53373 7.72096 5.27153 7.45772 4.94789 7.45772C4.62442 7.45772 4.36222 7.72096 4.36222 8.04549C4.36222 8.37003 4.62442 8.63326 4.94789 8.63326Z" fill="white"/>
<path d="M6.57396 6.20049C6.8976 6.20049 7.15979 5.93726 7.15979 5.61272C7.15979 5.28818 6.8976 5.02495 6.57396 5.02495C6.25048 5.02495 5.98829 5.28818 5.98829 5.61272C5.98829 5.93726 6.25048 6.20049 6.57396 6.20049Z" fill="white"/>
<path d="M8.20002 3.71186C8.52367 3.71186 8.78586 3.44863 8.78586 3.12409C8.78586 2.79956 8.52367 2.53633 8.20002 2.53633C7.87655 2.53633 7.61436 2.79956 7.61436 3.12409C7.61436 3.44863 7.87655 3.71186 8.20002 3.71186Z" fill="white"/>
<path d="M9.73807 1.30882C10.0617 1.30882 10.3239 1.04559 10.3239 0.721048C10.3239 0.396509 10.0617 0.133278 9.73807 0.133278C9.4146 0.133278 9.1524 0.396509 9.1524 0.721048C9.1524 1.04559 9.4146 1.30882 9.73807 1.30882Z" fill="white"/>
<path d="M12.9267 16C13.3179 16 13.6351 15.6817 13.6351 15.2893C13.6351 14.8968 13.3179 14.5786 12.9267 14.5786C12.5355 14.5786 12.2183 14.8968 12.2183 15.2893C12.2183 15.6817 12.5355 16 12.9267 16Z" fill="white"/>
<path d="M24.2709 0.992808L24.0861 0.959513L23.7151 3.01902L23.8999 3.0523L24.1058 1.90958C24.1079 1.90591 24.1105 1.9014 24.1137 1.8962C24.1236 1.87989 24.1385 1.85717 24.1579 1.83232C24.1946 1.78518 24.2433 1.73575 24.3003 1.70463L24.3071 1.70409C24.3229 1.70286 24.3458 1.70124 24.3737 1.69974C24.4297 1.69674 24.5048 1.6943 24.5826 1.69635C24.6611 1.69842 24.7386 1.70499 24.8008 1.71877C24.8319 1.72564 24.8563 1.73371 24.8739 1.74224C24.8922 1.75105 24.8985 1.75875 24.8985 1.75875L24.9124 1.77858L24.9327 1.7884L24.9348 1.7897L24.9384 1.79221C24.9441 1.79638 24.9525 1.80349 24.961 1.81396C24.9763 1.83288 24.995 1.86635 24.9939 1.92337L24.8112 2.9858L24.9962 3.01762L25.1811 1.94273L25.1813 1.93664C25.1858 1.82681 25.149 1.74778 25.1069 1.69582C25.0865 1.67056 25.0655 1.65256 25.0491 1.64057C25.045 1.63758 25.0412 1.63494 25.0376 1.63263C25.0138 1.60596 24.9842 1.58699 24.9557 1.5732C24.9205 1.55622 24.8811 1.54422 24.8414 1.53545C24.7623 1.51793 24.6711 1.51086 24.5875 1.50866C24.5031 1.50644 24.4227 1.50909 24.3637 1.51225C24.3341 1.51384 24.3096 1.51557 24.2925 1.51691L24.2724 1.51856L24.267 1.51905L24.2649 1.51925L24.2484 1.52086L24.2334 1.52804C24.2101 1.53918 24.1882 1.55199 24.1677 1.56586L24.2709 0.992808Z" fill="white"/>
<path fill-rule="evenodd" clip-rule="evenodd" d="M21.3259 1.70669H22.0986C22.1016 1.70797 22.105 1.70957 22.1088 1.7115C22.1237 1.71904 22.143 1.73097 22.161 1.74837C22.1937 1.78 22.229 1.83541 22.2134 1.93926L22.2133 1.93993L22.1776 2.18926L21.4771 2.16575H21.4756C21.4165 2.16575 21.3616 2.18576 21.3163 2.20942C21.2705 2.23343 21.2286 2.26433 21.1942 2.29338C21.1594 2.32266 21.1303 2.35167 21.11 2.37325C21.0997 2.38411 21.0915 2.39324 21.0858 2.39979L21.079 2.40762L21.0771 2.40991L21.0762 2.41102L21.069 2.41972L21.0641 2.42986C21.0103 2.54135 20.9927 2.64164 21.0027 2.73068C21.0127 2.81986 21.0496 2.89041 21.093 2.9436C21.1359 2.99611 21.1853 3.03205 21.2229 3.05466C21.2419 3.0661 21.2586 3.0745 21.2708 3.08018C21.2769 3.08303 21.282 3.08522 21.2858 3.08678L21.2905 3.08868L21.2921 3.08929L21.2931 3.08968L21.3089 3.09552H22.2378L22.3991 1.96681C22.4243 1.79861 22.3643 1.68392 22.2916 1.61347C22.2568 1.5798 22.2207 1.55768 22.1935 1.54392C22.1798 1.53699 22.1679 1.532 22.1591 1.52861C22.1547 1.52691 22.151 1.5256 22.1481 1.52464L22.1444 1.52345L22.1431 1.52305L22.1421 1.52275L22.1292 1.51893H21.3259V1.70669ZM21.4743 2.35352L22.1509 2.37623L22.075 2.90777H21.3454C21.3386 2.90446 21.3297 2.89982 21.3196 2.89375C21.2943 2.8785 21.2637 2.85573 21.2385 2.82485C21.2138 2.79465 21.1946 2.75714 21.1892 2.70974C21.1841 2.66421 21.1911 2.60282 21.2282 2.52218C21.2325 2.51724 21.2387 2.51036 21.2465 2.50214C21.2635 2.48415 21.2873 2.4604 21.3152 2.43692C21.3433 2.41321 21.3736 2.39136 21.4034 2.37579C21.4331 2.36026 21.4569 2.35382 21.4743 2.35352Z" fill="white"/>
<path fill-rule="evenodd" clip-rule="evenodd" d="M23.7224 1.51893H22.9104L22.8904 1.52893L22.8897 1.52926L22.8885 1.52988L22.8849 1.53178C22.882 1.53334 22.8782 1.53548 22.8735 1.53823C22.864 1.54373 22.8511 1.55168 22.8357 1.56227C22.805 1.58342 22.764 1.61532 22.7208 1.65949C22.6351 1.74712 22.5403 1.88356 22.5012 2.07876L22.498 2.08861L22.495 2.09831C22.4899 2.11457 22.4832 2.13781 22.4758 2.16675C22.4612 2.22449 22.444 2.30559 22.4341 2.39954C22.4145 2.58497 22.4215 2.83285 22.5446 3.04822L22.5652 3.08427L22.7078 3.11599H23.4601V2.92823H22.7284L22.6888 2.91941C22.6116 2.76099 22.6042 2.57596 22.6208 2.41929C22.6296 2.33623 22.6448 2.26415 22.6578 2.21295C22.6643 2.18742 22.6702 2.16726 22.6744 2.15373C22.6765 2.14697 22.6781 2.14187 22.6792 2.13861L22.6804 2.1351L22.6806 2.13435L22.683 2.12777L22.6843 2.12079C22.7142 1.96537 22.7885 1.85877 22.855 1.79078C22.8884 1.75666 22.9197 1.7324 22.9422 1.71695C22.948 1.71292 22.9532 1.7095 22.9577 1.70669H23.7224V1.51893ZM22.9325 1.61281C22.8906 1.52884 22.8904 1.52893 22.8904 1.52893L22.9325 1.61281Z" fill="white"/>
<path d="M26.9387 11.671H31.3771C31.3914 11.671 31.4055 11.6698 31.4197 11.6674C32.0255 11.5625 33.1865 10.9674 33.243 9.46495C33.3162 7.5218 31.925 7.41549 31.9109 7.41481C31.9129 7.41413 29.0991 7.41481 29.0991 7.41481C28.1384 7.23717 28.1904 6.21074 28.1932 6.16573C28.1936 6.15945 28.1937 6.15317 28.1937 6.14688C28.1833 4.8455 29.4073 4.47851 29.6007 4.42875H33.5675C33.7066 4.42875 33.8196 4.3148 33.8196 4.17401C33.8196 4.03339 33.7066 3.91927 33.5675 3.91927H29.571C29.553 3.91927 29.535 3.92131 29.5174 3.92521C28.8816 4.06447 27.6832 4.70676 27.6896 6.14145C27.6564 6.69338 27.8956 7.73153 29.0379 7.92395C29.0414 7.92378 31.8867 7.92395 31.8867 7.92395C32.0129 7.93719 32.7909 8.07441 32.7391 9.44559C32.687 10.8281 31.5207 11.1259 31.3528 11.1615H26.9387C26.7995 11.1615 26.6866 11.2756 26.6866 11.4163C26.6866 11.5569 26.7995 11.671 26.9387 11.671Z" fill="white"/>
<path fill-rule="evenodd" clip-rule="evenodd" d="M39.7417 11.6979H35.6458C35.6367 11.6979 35.6279 11.6974 35.6189 11.6963C35.0789 11.6379 34.0514 11.2582 34.0283 10.2387C34.0041 9.15522 34.7223 5.86365 34.7528 5.72405C34.7554 5.71267 34.7586 5.70146 34.7626 5.69059C34.7876 5.62249 35.39 4.02358 36.7235 4.02358H39.6698C39.6935 4.02358 39.7172 4.02698 39.7397 4.0336C39.7913 4.04871 41 4.41367 41 5.46456C41 6.34782 40.7437 7.84145 40.7328 7.90462C40.7119 8.02588 40.6081 8.11453 40.4866 8.11555L34.7861 8.16378C34.6423 8.98268 34.5229 9.80362 34.5325 10.2272C34.5503 11.0162 35.5328 11.1714 35.661 11.1884H39.7417C39.8809 11.1884 39.9938 11.3025 39.9938 11.4431C39.9938 11.5837 39.8809 11.6979 39.7417 11.6979ZM35.2411 5.85312C35.2127 5.98388 35.0443 6.76577 34.8787 7.65362L40.2704 7.60793C40.341 7.16418 40.4958 6.11567 40.4958 5.46456C40.4958 4.8688 39.7874 4.58825 39.63 4.53306H36.7235C35.7931 4.53306 35.2987 5.70758 35.2411 5.85312Z" fill="white"/>
<path fill-rule="evenodd" clip-rule="evenodd" d="M19.2072 15.0364C19.2224 15.0392 19.2375 15.0405 19.2524 15.0405C19.3719 15.0405 19.4781 14.9542 19.5002 14.8311C19.6699 13.8826 19.9486 12.3294 20.2275 10.7809C20.8855 11.6195 21.7038 11.7077 21.7448 11.7114C21.7549 11.7126 21.765 11.7133 21.7755 11.7124L24.3657 11.6377C24.3879 11.6372 24.4097 11.6336 24.4307 11.627C25.6596 11.2546 26.029 9.9734 26.0443 9.91906C26.0468 9.90989 26.0488 9.90055 26.0503 9.8912L26.7535 5.55384C26.7543 5.54899 26.7547 5.54409 26.7551 5.53919C26.7554 5.53487 26.7557 5.53044 26.7564 5.52616C26.9085 4.48088 25.6021 3.98108 25.3576 3.98668H25.3567C24.3018 3.99059 22.7037 3.99415 22.537 3.98838C22.5147 3.98583 22.4916 3.98617 22.4686 3.98991C21.8152 4.09503 20.9282 4.93788 20.6433 5.72435L20.6479 5.72587C20.6193 5.81367 20.5942 5.94699 20.5563 6.1501C20.51 6.39601 20.4457 6.74704 20.3687 7.16821C20.2151 8.0097 20.0122 9.13157 19.8099 10.2534C19.4055 12.497 19.004 14.7404 19.004 14.7404C18.9793 14.8788 19.0703 15.0113 19.2072 15.0364ZM21.7801 11.2026C21.6633 11.1861 20.8717 11.0389 20.3588 10.052C20.7324 7.98049 21.0754 6.09236 21.1196 5.8918C21.3549 5.25359 22.1152 4.56783 22.5419 4.49395C22.6373 4.49999 22.7675 4.50023 22.9468 4.50057L22.9536 4.50058C23.2207 4.50075 23.5775 4.50075 23.9339 4.50007C24.5245 4.49905 25.1149 4.49701 25.2994 4.49633C25.5986 4.49412 26.3263 5.00734 26.2534 5.4871L25.5556 9.79203C25.5191 9.90734 25.1983 10.8431 24.3168 11.1296L21.7801 11.2026Z" fill="white"/>
<defs>
<clipPath id="clip0_20_135">
<rect width="42.6667" height="16" fill="white" transform="translate(61.6)"/>
</clipPath>
</defs>
</svg>
