<?xml version="1.0" encoding="UTF-8"?>
<svg width="184px" height="146px" viewBox="0 0 184 146" version="1.1" xmlns="http://www.w3.org/2000/svg" xmlns:xlink="http://www.w3.org/1999/xlink">
    <title>Group 5</title>
    <g id="Page-1" stroke="none" stroke-width="1" fill="none" fill-rule="evenodd">
        <g id="store-page---store-page" transform="translate(-521.000000, -351.000000)">
            <g id="Group-5" transform="translate(522.000000, 352.000000)">
                <rect id="Rectangle" stroke="#D8D8D8" fill="#FFFFFF" x="0" y="0" width="182" height="144" rx="3"></rect>
                <rect id="Rectangle" fill="#F1F1F1" x="8.5" y="9" width="166" height="69"></rect>
                <g id="Group" transform="translate(9.452148, 92.529297)">
                    <g id="LOGO" fill="#A8A8A8" fill-rule="nonzero">
                        <polygon id="Path" points="0 9.47070312 0 0.165039062 1.23144531 0.165039062 1.23144531 8.37255859 5.81445312 8.37255859 5.81445312 9.47070312"></polygon>
                        <path d="M6.90625,4.93847656 C6.90625,3.39388021 7.32096354,2.18465169 8.15039062,1.31079102 C8.97981771,0.436930339 10.0504557,0 11.3623047,0 C12.2213542,0 12.9957682,0.205240885 13.6855469,0.615722656 C14.3753255,1.02620443 14.901123,1.59855143 15.2629395,2.33276367 C15.6247559,3.06697591 15.8056641,3.89957682 15.8056641,4.83056641 C15.8056641,5.7742513 15.6152344,6.61848958 15.234375,7.36328125 C14.8535156,8.10807292 14.3139648,8.67195638 13.6157227,9.05493164 C12.9174805,9.4379069 12.1642253,9.62939453 11.355957,9.62939453 C10.4799805,9.62939453 9.69710286,9.41780599 9.00732422,8.99462891 C8.31754557,8.57145182 7.79492188,7.9938151 7.43945312,7.26171875 C7.08398438,6.5296224 6.90625,5.75520833 6.90625,4.93847656 Z M8.17578125,4.95751953 C8.17578125,6.0789388 8.47729492,6.96232096 9.08032227,7.60766602 C9.68334961,8.25301107 10.4397786,8.57568359 11.3496094,8.57568359 C12.2763672,8.57568359 13.0391439,8.24983724 13.6379395,7.59814453 C14.236735,6.94645182 14.5361328,6.0218099 14.5361328,4.82421875 C14.5361328,4.06673177 14.4081217,3.40551758 14.1520996,2.84057617 C13.8960775,2.27563477 13.5215658,1.83764648 13.0285645,1.52661133 C12.5355632,1.21557617 11.9822591,1.06005859 11.3686523,1.06005859 C10.4969076,1.06005859 9.74682617,1.35945638 9.1184082,1.95825195 C8.48999023,2.55704753 8.17578125,3.55680339 8.17578125,4.95751953 Z" id="Shape"></path>
                        <path d="M21.7470703,5.82080078 L21.7470703,4.72900391 L25.6889648,4.72265625 L25.6889648,8.17578125 C25.0838216,8.65820312 24.4596354,9.02107747 23.8164062,9.2644043 C23.1731771,9.50773112 22.5130208,9.62939453 21.8359375,9.62939453 C20.921875,9.62939453 20.09139,9.43367513 19.3444824,9.04223633 C18.5975749,8.65079753 18.0336914,8.08479818 17.652832,7.34423828 C17.2719727,6.60367839 17.081543,5.77636719 17.081543,4.86230469 C17.081543,3.95670573 17.2709147,3.11140951 17.6496582,2.32641602 C18.0284017,1.54142253 18.5732422,0.958496094 19.2841797,0.577636719 C19.9951172,0.196777344 20.8139648,0.00634765625 21.7407227,0.00634765625 C22.4135742,0.00634765625 23.0218913,0.115315755 23.5656738,0.333251953 C24.1094564,0.551188151 24.5358073,0.854817708 24.8447266,1.24414062 C25.1536458,1.63346354 25.3885091,2.14127604 25.5493164,2.76757812 L24.4384766,3.07226563 C24.2988281,2.59830729 24.1253255,2.22591146 23.9179688,1.95507812 C23.710612,1.68424479 23.414388,1.46736654 23.0292969,1.30444336 C22.6442057,1.14152018 22.2167969,1.06005859 21.7470703,1.06005859 C21.1842448,1.06005859 20.6975911,1.14575195 20.2871094,1.31713867 C19.8766276,1.48852539 19.5454915,1.71386719 19.2937012,1.99316406 C19.0419108,2.27246094 18.8461914,2.57926432 18.706543,2.91357422 C18.4695638,3.48909505 18.3510742,4.11328125 18.3510742,4.78613281 C18.3510742,5.6155599 18.4938965,6.30957031 18.779541,6.86816406 C19.0651855,7.42675781 19.480957,7.84147135 20.0268555,8.11230469 C20.5727539,8.38313802 21.1525065,8.51855469 21.7661133,8.51855469 C22.2993164,8.51855469 22.8198242,8.41593424 23.3276367,8.21069336 C23.8354492,8.00545247 24.2205404,7.78645833 24.4829102,7.55371094 L24.4829102,5.82080078 L21.7470703,5.82080078 Z" id="Path"></path>
                        <path d="M27.1298828,4.93847656 C27.1298828,3.39388021 27.5445964,2.18465169 28.3740234,1.31079102 C29.2034505,0.436930339 30.2740885,0 31.5859375,0 C32.444987,0 33.219401,0.205240885 33.9091797,0.615722656 C34.5989583,1.02620443 35.1247559,1.59855143 35.4865723,2.33276367 C35.8483887,3.06697591 36.0292969,3.89957682 36.0292969,4.83056641 C36.0292969,5.7742513 35.8388672,6.61848958 35.4580078,7.36328125 C35.0771484,8.10807292 34.5375977,8.67195638 33.8393555,9.05493164 C33.1411133,9.4379069 32.3878581,9.62939453 31.5795898,9.62939453 C30.7036133,9.62939453 29.9207357,9.41780599 29.230957,8.99462891 C28.5411784,8.57145182 28.0185547,7.9938151 27.6630859,7.26171875 C27.3076172,6.5296224 27.1298828,5.75520833 27.1298828,4.93847656 Z M28.3994141,4.95751953 C28.3994141,6.0789388 28.7009277,6.96232096 29.3039551,7.60766602 C29.9069824,8.25301107 30.6634115,8.57568359 31.5732422,8.57568359 C32.5,8.57568359 33.2627767,8.24983724 33.8615723,7.59814453 C34.4603678,6.94645182 34.7597656,6.0218099 34.7597656,4.82421875 C34.7597656,4.06673177 34.6317546,3.40551758 34.3757324,2.84057617 C34.1197103,2.27563477 33.7451986,1.83764648 33.2521973,1.52661133 C32.759196,1.21557617 32.2058919,1.06005859 31.5922852,1.06005859 C30.7205404,1.06005859 29.970459,1.35945638 29.342041,1.95825195 C28.713623,2.55704753 28.3994141,3.55680339 28.3994141,4.95751953 Z" id="Shape"></path>
                    </g>
                    <line x1="0.547851562" y1="19.9707031" x2="102.547852" y2="19.9707031" id="Line" stroke="#D1D1D1" stroke-width="2" stroke-linecap="square"></line>
                    <line x1="0.547851562" y1="28.9707031" x2="102.547852" y2="28.9707031" id="Line" stroke="#D1D1D1" stroke-width="2" stroke-linecap="square"></line>
                    <line x1="0.547851562" y1="37.9707031" x2="102.547852" y2="37.9707031" id="Line" stroke="#D1D1D1" stroke-width="2" stroke-linecap="square"></line>
                </g>
            </g>
        </g>
    </g>
</svg>