<?xml version="1.0" encoding="UTF-8"?>
<svg width="82px" height="65px" viewBox="0 0 82 65" version="1.1" xmlns="http://www.w3.org/2000/svg" xmlns:xlink="http://www.w3.org/1999/xlink">
    <title>Group 3</title>
    <g id="my-account" stroke="none" stroke-width="1" fill="none" fill-rule="evenodd">
        <g id="affiliate-dashboard---in-valutazione" transform="translate(-1205, -342)">
            <g id="Group-3" transform="translate(1205, 342)">
                <g id="Group" transform="translate(0, 1.888)" fill="#757575" fill-rule="nonzero">
                    <g id="vendor-waiting" transform="translate(0, 0)">
                        <g id="Group" transform="translate(0, 8.112)">
                            <path d="M57.6987114,54.8738532 L6.5915685,54.8738532 C5.83442564,54.8738532 5.20347326,54.2431193 5.20347326,53.4862385 L5.20347326,28.3830275 C5.20347326,28.3830275 5.32966374,27.6261468 5.70823517,27.3738532 C5.96061612,27.1215596 6.33918755,26.9954128 6.84394945,27.1215596 C7.09633041,27.1215596 7.34871136,27.1215596 7.60109231,27.1215596 C9.87252088,27.1215596 11.8915685,25.4816514 12.2701399,23.2110092 C12.2701399,22.5802752 12.9010923,22.0756881 13.5320447,22.0756881 L13.7844256,22.0756881 C14.415378,22.0756881 14.9201399,22.5802752 15.0463304,23.2110092 C15.5510923,25.4816514 17.4439495,27.1215596 19.715378,27.1215596 C21.9868066,27.1215596 24.0058542,25.4816514 24.3844256,23.2110092 C24.3844256,22.5802752 25.015378,22.0756881 25.6463304,22.0756881 L25.8987114,22.0756881 C26.5296637,22.0756881 27.0344256,22.5802752 27.1606161,23.2110092 C27.665378,25.4816514 29.5582352,27.1215596 31.8296637,27.1215596 C34.1010923,27.1215596 36.1201399,25.4816514 36.4987114,23.2110092 C36.4987114,22.5802752 37.1296637,22.0756881 37.7606161,22.0756881 L38.0129971,22.0756881 C38.6439495,22.0756881 39.1487114,22.5802752 39.2749018,23.2110092 C39.7796637,25.4816514 41.6725209,27.1215596 43.9439495,27.1215596 C46.215378,27.1215596 48.2344256,25.4816514 48.6129971,23.2110092 C48.6129971,22.5802752 49.2439495,22.0756881 49.8749018,22.0756881 L50.1272828,22.0756881 C50.7582352,22.0756881 51.2629971,22.5802752 51.3891875,23.2110092 C51.8939495,25.4816514 53.7868066,27.1215596 56.0582352,27.1215596 C56.3106161,27.1215596 56.5629971,27.1215596 56.6891875,27.1215596 C57.067759,27.1215596 57.4463304,27.1215596 57.6987114,27.5 C57.9510923,27.7522936 58.2034733,28.1307339 58.2034733,28.5091743 L58.2034733,53.6123853 C58.2034733,54.3692661 57.5725209,55 56.815378,55 L57.6987114,54.8738532 Z M7.34246307,52.2247706 L56.2151903,52.2247706 L56.2151903,29.896789 C53.9242812,29.7706422 51.7606449,28.5091743 50.4879176,26.7431193 C49.0879176,28.7614679 46.7970085,30.0229358 44.251554,30.0229358 C41.7060994,30.0229358 39.4151903,28.7614679 38.0151903,26.7431193 C36.6151903,28.7614679 34.3242812,30.0229358 31.7788267,30.0229358 C29.2333722,30.0229358 26.9424631,28.7614679 25.5424631,26.7431193 C24.1424631,28.7614679 21.851554,30.0229358 19.3060994,30.0229358 C16.7606449,30.0229358 14.4697358,28.7614679 13.0697358,26.7431193 C11.7970085,28.6353211 9.63337216,29.896789 7.21519034,30.0229358 L7.21519034,52.3509174 L7.34246307,52.2247706 Z" id="Shape"></path>
                            <path d="M56.5921242,29.896789 C54.0792317,29.896789 51.8176285,28.6353211 50.4355377,26.6169725 C49.0534468,28.6353211 46.7918436,29.896789 44.2789511,29.896789 C41.7660587,29.896789 39.5044554,28.6353211 38.1223646,26.6169725 C36.7402737,28.6353211 34.4786705,29.896789 31.965778,29.896789 C29.4528856,29.896789 27.1912823,28.6353211 25.8091915,26.6169725 C24.4271006,28.6353211 22.1654974,29.896789 19.6526049,29.896789 C17.1397125,29.896789 14.8781093,28.6353211 13.4960184,26.6169725 C12.1139275,28.6353211 9.85232433,29.896789 7.33943186,29.896789 C7.08814261,29.896789 6.83685337,29.896789 6.58556412,29.896789 C6.58556412,29.896789 6.58556412,29.896789 6.4599195,29.896789 L6.33427487,29.896789 C3.31880391,29.3922018 0.93155607,27.2477064 0.17768833,24.3463303 C0.052043707,24.0940367 -0.0736009163,23.7155963 0.052043707,23.337156 L0.052043707,23.337156 C0.052043707,23.337156 0.052043707,22.8325688 0.052043707,22.4541284 C0.052043707,20.940367 4.57525015,7.06422018 6.58556412,1.00917431 C6.71120874,0.504587156 7.33943186,0.126146789 7.84201035,0.126146789 L17.3910017,0.126146789 C18.1448695,0.126146789 18.7730926,0.756880734 18.7730926,1.51376147 C18.7730926,2.2706422 18.1448695,2.90137615 17.3910017,2.90137615 L8.72152272,2.90137615 C5.83169638,11.7316514 2.81622542,21.4449541 2.6905808,22.5802752 C2.6905808,22.706422 2.6905808,22.9587156 2.6905808,23.0848624 C2.6905808,23.0848624 2.6905808,23.337156 2.6905808,23.337156 L2.6905808,23.337156 C3.06751467,25.3555046 4.70089477,26.8692661 6.71120874,27.1215596 L7.08814261,27.1215596 C7.08814261,27.1215596 7.33943186,27.1215596 7.46507648,27.1215596 C9.7266797,27.1215596 11.7369937,25.4816514 12.1139275,23.2110092 C12.1139275,22.5802752 12.7421507,22.0756881 13.3703738,22.0756881 L13.621663,22.0756881 C14.2498861,22.0756881 14.7524646,22.5802752 14.8781093,23.2110092 C15.3806878,25.4816514 17.2653571,27.1215596 19.5269603,27.1215596 C21.7885635,27.1215596 23.7988775,25.4816514 24.1758114,23.2110092 C24.1758114,22.5802752 24.8040345,22.0756881 25.4322576,22.0756881 L25.6835469,22.0756881 C26.31177,22.0756881 26.8143485,22.5802752 26.9399931,23.2110092 C27.4425716,25.4816514 29.3272409,27.1215596 31.5888442,27.1215596 C33.8504474,27.1215596 35.8607614,25.4816514 36.2376952,23.2110092 C36.2376952,22.5802752 36.8659183,22.0756881 37.4941415,22.0756881 L37.7454307,22.0756881 C38.3736538,22.0756881 38.8762323,22.5802752 39.0018769,23.2110092 C39.5044554,25.4816514 41.3891248,27.1215596 43.650728,27.1215596 C45.9123312,27.1215596 47.9226452,25.4816514 48.2995791,23.2110092 C48.2995791,22.5802752 48.9278022,22.0756881 49.5560253,22.0756881 L49.8073145,22.0756881 C50.4355377,22.0756881 50.9381162,22.5802752 51.0637608,23.2110092 C51.5663393,25.4816514 53.5766532,27.1215596 55.8382565,27.1215596 C55.8382565,27.1215596 55.8382565,27.1215596 55.8382565,27.1215596 C55.8382565,27.1215596 56.0895457,27.1215596 56.2151903,27.1215596 C58.3511489,26.8692661 59.8588844,25.2293578 60.3614629,23.337156 L60.3614629,23.337156 C60.3614629,23.337156 60.3614629,23.337156 60.3614629,23.337156 C60.3614629,23.0848624 60.3614629,22.706422 60.3614629,22.4541284 C60.3614629,21.3188073 57.2203473,11.7316514 54.2048764,2.77522936 L45.0328189,2.77522936 C44.2789511,2.77522936 43.650728,2.14449541 43.650728,1.38761468 C43.650728,0.630733945 44.2789511,0 45.0328189,0 L55.2100334,0 C55.2100334,0 56.340835,0.378440367 56.4664796,0.883027523 C58.4767936,6.81192661 63,20.6880734 63,22.3279817 C63,22.8325688 63,23.2110092 63,23.5894495 C63,23.5894495 63,23.8417431 63,23.9678899 C62.3717769,26.9954128 59.8588844,29.3922018 56.7177688,29.7706422 C56.5921242,29.7706422 56.4664796,29.7706422 56.2151903,29.7706422 C56.0895457,29.7706422 55.8382565,29.7706422 55.7126118,29.7706422 L56.5921242,29.896789 Z" id="Path"></path>
                            <path d="M13.4960184,24.8509174 C13.4960184,24.8509174 13.3703738,24.8509174 13.2447292,24.8509174 C12.4908614,24.7247706 11.9882829,23.9678899 12.1139275,23.337156 L16.0089109,1.63990826 C16.1345555,0.883027523 16.8884232,0.378440367 17.5166464,0.504587156 C18.2705141,0.630733945 18.7730926,1.38761468 18.647448,2.01834862 L14.7524646,23.7155963 C14.7524646,24.3463303 14.1242415,24.8509174 13.4960184,24.8509174 Z" id="Path"></path>
                            <path d="M25.5805342,24.9802494 C25.5805342,24.9802494 25.5805342,24.9802494 25.4505342,24.9802494 C24.6705342,24.9802494 24.1505342,24.197132 24.2805342,23.4140145 L24.8005342,18.3237512 C24.8005342,17.5406337 25.5805342,17.0185554 26.3605342,17.149075 C27.1405342,17.149075 27.6605342,17.9321925 27.5305342,18.7153099 L27.0105342,23.8055732 C27.0105342,24.4581711 26.3605342,25.110769 25.5805342,25.110769 L25.5805342,24.9802494 Z" id="Path"></path>
                            <path d="M37.6001334,24.9842873 C36.9501334,24.9842873 36.3001334,24.462209 36.1701334,23.6790916 L35.6501334,18.5888283 C35.6501334,17.8057108 36.1701334,17.153113 36.9501334,17.0225934 C37.7301334,17.0225934 38.3801334,17.5446717 38.5101334,18.3277891 L39.0301334,23.4180525 C39.0301334,24.2011699 38.5101334,24.8537678 37.7301334,24.9842873 C37.7301334,24.9842873 37.7301334,24.9842873 37.6001334,24.9842873 L37.6001334,24.9842873 Z" id="Path"></path>
                            <path d="M49.7929398,26.2359071 C49.7929398,26.2359071 48.5329398,25.8300577 48.3929398,25.153642 L43.3529398,2.02022423 C43.2129398,1.20852536 43.6329398,0.532109636 44.4729398,0.261543346 C45.3129398,0.126260201 46.0129398,0.532109636 46.2929398,1.3438085 L51.3329398,24.4772263 C51.4729398,25.2889251 51.0529398,25.9653408 50.2129398,26.2359071 C50.2129398,26.2359071 50.0729398,26.2359071 49.9329398,26.2359071 L49.7929398,26.2359071 Z" id="Path"></path>
                            <path d="M48.4252237,54.8738532 L15.631977,54.8738532 C14.8781093,54.8738532 14.2498861,54.2431193 14.2498861,53.4862385 L14.2498861,33.9334862 C14.2498861,33.1766055 14.8781093,32.5458716 15.631977,32.5458716 L48.4252237,32.5458716 C49.1790914,32.5458716 49.8073145,33.1766055 49.8073145,33.9334862 L49.8073145,53.4862385 C49.8073145,54.2431193 49.1790914,54.8738532 48.4252237,54.8738532 Z M17.0140679,52.2247706 L47.0431328,52.2247706 L47.0431328,35.3211009 L17.0140679,35.3211009 L17.0140679,52.2247706 Z" id="Shape"></path>
                            <path d="M27.5682162,54.8738532 C26.8143485,54.8738532 26.1861254,54.2431193 26.1861254,53.4862385 L26.1861254,33.9334862 C26.1861254,33.1766055 26.8143485,32.5458716 27.5682162,32.5458716 C28.322084,32.5458716 28.9503071,33.1766055 28.9503071,33.9334862 L28.9503071,53.4862385 C28.9503071,54.2431193 28.322084,54.8738532 27.5682162,54.8738532 Z" id="Path"></path>
                            <path d="M48.4252237,42.0068807 L15.631977,42.0068807 C14.8781093,42.0068807 14.2498861,41.3761468 14.2498861,40.6192661 C14.2498861,39.8623853 14.8781093,39.2316514 15.631977,39.2316514 L48.4252237,39.2316514 C49.1790914,39.2316514 49.8073145,39.8623853 49.8073145,40.6192661 C49.8073145,41.3761468 49.1790914,42.0068807 48.4252237,42.0068807 Z" id="Path"></path>
                        </g>
                        <g id="S" transform="translate(25.916, 0)">
                            <path d="M2.112,11.688 L1.13686838e-13,13.176 C0.368,13.944 0.868,14.656 1.5,15.312 C2.132,15.968 2.868,16.492 3.708,16.884 C4.548,17.276 5.456,17.472 6.432,17.472 C7.152,17.472 7.844,17.356 8.508,17.124 C9.172,16.892 9.768,16.564 10.296,16.14 C10.824,15.716 11.244,15.192 11.556,14.568 C11.868,13.944 12.024,13.24 12.024,12.456 C12.024,11.72 11.896,11.076 11.64,10.524 C11.384,9.972 11.052,9.496 10.644,9.096 C10.236,8.696 9.78,8.36 9.276,8.088 C8.772,7.816 8.264,7.592 7.752,7.416 C6.856,7.096 6.128,6.784 5.568,6.48 C5.008,6.176 4.596,5.852 4.332,5.508 C4.068,5.164 3.936,4.776 3.936,4.344 C3.936,3.864 4.12,3.444 4.488,3.084 C4.856,2.724 5.432,2.544 6.216,2.544 C6.776,2.544 7.268,2.652 7.692,2.868 C8.116,3.084 8.488,3.372 8.808,3.732 C9.128,4.092 9.4,4.48 9.624,4.896 L11.904,3.6 C11.632,3.008 11.24,2.44 10.728,1.896 C10.216,1.352 9.592,0.9 8.856,0.54 C8.12,0.18 7.256,0 6.264,0 C5.256,0 4.356,0.192 3.564,0.576 C2.772,0.96 2.144,1.492 1.68,2.172 C1.216,2.852 0.984,3.64 0.984,4.536 C0.984,5.32 1.136,5.988 1.44,6.54 C1.744,7.092 2.128,7.556 2.592,7.932 C3.056,8.308 3.544,8.62 4.056,8.868 C4.568,9.116 5.032,9.312 5.448,9.456 C6.152,9.712 6.776,9.972 7.32,10.236 C7.864,10.5 8.284,10.82 8.58,11.196 C8.876,11.572 9.024,12.064 9.024,12.672 C9.024,13.344 8.784,13.888 8.304,14.304 C7.824,14.72 7.2,14.928 6.432,14.928 C5.808,14.928 5.236,14.792 4.716,14.52 C4.196,14.248 3.724,13.872 3.3,13.392 C2.876,12.912 2.48,12.344 2.112,11.688 Z" id="Path"></path>
                        </g>
                    </g>
                </g>
                <circle id="Oval" fill="#BEBB4D" cx="61.5" cy="20.5" r="20.5"></circle>
                <g id="check-verde" transform="translate(54, 14)" fill="#FFFFFF" fill-rule="nonzero">
                    <polygon id="Path" points="3.43207975 3.37070902 7.42437996 7.30393437 14.7079754 0 18 3.25440201 7.40103745 14 0 6.76555724"></polygon>
                </g>
            </g>
        </g>
    </g>
</svg>