<?xml version="1.0" encoding="UTF-8"?>
<svg width="178px" height="74px" viewBox="0 0 178 74" version="1.1" xmlns="http://www.w3.org/2000/svg" xmlns:xlink="http://www.w3.org/1999/xlink">
    <title>Group</title>
    <g id="my-account" stroke="none" stroke-width="1" fill="none" fill-rule="evenodd">
        <g id="affiliate-dashboard---respinta" transform="translate(-1157, -321)">
            <g id="Group" transform="translate(1157, 321)">
                <circle id="Oval" stroke="#636363" stroke-width="2" cx="33.5" cy="9.5" r="5.5"></circle>
                <circle id="Oval" stroke="#636363" stroke-width="2" cx="171.5" cy="37.5" r="5.5"></circle>
                <circle id="Oval" stroke="#636363" stroke-width="2" cx="22.5" cy="33.5" r="3.5"></circle>
                <g id="+" transform="translate(0, 3)" fill="#636363" fill-rule="nonzero">
                    <polygon id="Path" points="6.23564955 9.8028169 0 9.8028169 0 6.277666 6.23564955 6.277666 6.23564955 0 9.76435045 0 9.76435045 6.277666 16 6.277666 16 9.8028169 9.76435045 9.8028169 9.76435045 16 6.23564955 16"></polygon>
                </g>
                <g id="+" transform="translate(161, 54)" fill="#636363" fill-rule="nonzero">
                    <polygon id="Path" points="6.23564955 9.8028169 0 9.8028169 0 6.277666 6.23564955 6.277666 6.23564955 0 9.76435045 0 9.76435045 6.277666 16 6.277666 16 9.8028169 9.76435045 9.8028169 9.76435045 16 6.23564955 16"></polygon>
                </g>
                <g id="sad-affiliate" transform="translate(56, 0)" fill="#636363" fill-rule="nonzero">
                    <g id="Group" transform="translate(17, 24)">
                        <g id="Path">
                            <path d="M6.2533074,9.4872938 C10.3651285,9.4872938 10.4897291,2.99598752 6.2533074,2.99598752 C2.01688568,2.99598752 2.01688568,9.4872938 6.2533074,9.4872938 L6.2533074,9.4872938 Z"></path>
                            <path d="M32.7932435,9.4872938 C36.9050646,9.4872938 37.0296652,2.99598752 32.7932435,2.99598752 C28.5568218,2.99598752 28.5568218,9.4872938 32.7932435,9.4872938 L32.7932435,9.4872938 Z"></path>
                        </g>
                        <path d="M32.7932435,31.9572002 C32.7932435,31.9572002 32.294841,31.9572002 32.0456397,31.7075346 C24.4450007,26.8390548 14.6015502,26.8390548 6.8763106,31.7075346 C6.2533074,32.082033 5.50570357,31.9572002 5.13190165,31.3330361 C4.75809974,30.708872 4.88270038,29.9598752 5.50570357,29.5853767 C13.978547,24.2175658 24.9434033,24.2175658 33.4162467,29.5853767 C34.0392499,29.9598752 34.1638505,30.8337049 33.7900486,31.3330361 C33.5408473,31.7075346 33.1670454,31.9572002 32.6686429,31.9572002 L32.7932435,31.9572002 Z" id="Path"></path>
                    </g>
                    <path d="M37.0540224,74 C27.9330805,74 18.8121386,73.1377445 9.81445262,71.2900541 C6.24002944,70.5509779 3.52839806,67.841032 2.78886223,64.2688306 C-0.908816932,46.1614648 -0.908816932,27.8077403 2.66560625,9.70037453 C3.40514209,6.12817312 6.11677347,3.41822722 9.69119665,2.67915106 C27.8098245,-0.893050354 46.1749643,-0.893050354 64.2935922,2.67915106 C67.8680154,3.41822722 70.5796468,6.12817312 71.3191826,9.70037453 C74.8936058,27.8077403 74.8936058,46.1614648 71.3191826,64.2688306 C70.5796468,67.841032 67.8680154,70.5509779 64.2935922,71.2900541 L64.2935922,71.2900541 C55.2959063,73.1377445 46.1749643,74 37.0540224,74 Z M37.0540224,2.5559717 C28.0563365,2.5559717 19.1819065,3.41822722 10.3074765,5.2659176 C7.7191011,5.75863504 5.74700555,7.72950479 5.25398166,10.3162713 C1.67955848,27.9309197 1.67955848,46.0382855 5.13072569,63.7761132 C5.62374958,66.3628797 7.59584513,68.3337495 10.1842205,68.8264669 C27.9330805,72.3986683 45.9284524,72.3986683 63.8005683,68.8264669 L63.8005683,68.8264669 C66.3889437,68.3337495 68.3610393,66.3628797 68.8540632,63.7761132 C72.4284864,46.0382855 72.4284864,28.054099 68.8540632,10.193092 C68.3610393,7.60632543 66.3889437,5.63545568 63.8005683,5.14273824 C54.9261383,3.41822722 45.9284524,2.43279234 37.0540224,2.43279234 L37.0540224,2.5559717 Z" id="Shape"></path>
                </g>
            </g>
        </g>
    </g>
</svg>